<svg width="105" height="25" viewBox="0 0 105 25" fill="none" xmlns="http://www.w3.org/2000/svg">
<path d="M0 0.015625H4.5V20.1406L4.04688 24.0156H0V0.015625ZM15.2031 15.3906V15.7188C15.2031 16.9792 15.0677 18.1354 14.7969 19.1875C14.5365 20.2396 14.1302 21.151 13.5781 21.9219C13.026 22.6823 12.3385 23.276 11.5156 23.7031C10.7031 24.1198 9.74479 24.3281 8.64062 24.3281C7.60938 24.3281 6.71354 24.1198 5.95312 23.7031C5.20312 23.2865 4.57292 22.6979 4.0625 21.9375C3.55208 21.1771 3.14062 20.2865 2.82812 19.2656C2.51562 18.2448 2.28125 17.1302 2.125 15.9219V15.2031C2.28125 13.9948 2.51562 12.8802 2.82812 11.8594C3.14062 10.8385 3.55208 9.94792 4.0625 9.1875C4.57292 8.42708 5.20312 7.83854 5.95312 7.42188C6.70312 7.00521 7.58854 6.79688 8.60938 6.79688C9.72396 6.79688 10.6927 7.01042 11.5156 7.4375C12.349 7.85417 13.0365 8.44792 13.5781 9.21875C14.1302 9.97917 14.5365 10.8854 14.7969 11.9375C15.0677 12.9792 15.2031 14.1302 15.2031 15.3906ZM10.7031 15.7188V15.3906C10.7031 14.7031 10.651 14.0573 10.5469 13.4531C10.4531 12.8385 10.2865 12.3021 10.0469 11.8438C9.80729 11.375 9.47917 11.0052 9.0625 10.7344C8.65625 10.4635 8.13021 10.3281 7.48438 10.3281C6.86979 10.3281 6.34896 10.4323 5.92188 10.6406C5.49479 10.849 5.14062 11.1406 4.85938 11.5156C4.58854 11.8906 4.38542 12.3385 4.25 12.8594C4.11458 13.3698 4.03125 13.9323 4 14.5469V16.5938C4.03125 17.4167 4.16667 18.1458 4.40625 18.7812C4.65625 19.4062 5.03125 19.901 5.53125 20.2656C6.04167 20.6198 6.70312 20.7969 7.51562 20.7969C8.15104 20.7969 8.67708 20.6719 9.09375 20.4219C9.51042 20.1719 9.83333 19.8177 10.0625 19.3594C10.3021 18.901 10.4688 18.3646 10.5625 17.75C10.6562 17.125 10.7031 16.4479 10.7031 15.7188ZM22.5 10.7969V24.0156H18V7.10938H22.2344L22.5 10.7969ZM27.5938 7L27.5156 11.1719C27.2969 11.1406 27.0312 11.1146 26.7188 11.0938C26.4167 11.0625 26.1406 11.0469 25.8906 11.0469C25.2552 11.0469 24.7031 11.1302 24.2344 11.2969C23.776 11.4531 23.3906 11.6875 23.0781 12C22.776 12.3125 22.5469 12.6927 22.3906 13.1406C22.2448 13.5885 22.1615 14.099 22.1406 14.6719L21.2344 14.3906C21.2344 13.2969 21.3438 12.2917 21.5625 11.375C21.7812 10.4479 22.099 9.64062 22.5156 8.95312C22.9427 8.26562 23.4635 7.73438 24.0781 7.35938C24.6927 6.98438 25.3958 6.79688 26.1875 6.79688C26.4375 6.79688 26.6927 6.81771 26.9531 6.85938C27.2135 6.89062 27.4271 6.9375 27.5938 7ZM37.1875 24.3281C35.875 24.3281 34.6979 24.1198 33.6562 23.7031C32.6146 23.276 31.7292 22.6875 31 21.9375C30.2812 21.1875 29.7292 20.3177 29.3438 19.3281C28.9583 18.3281 28.7656 17.2656 28.7656 16.1406V15.5156C28.7656 14.2344 28.9479 13.0625 29.3125 12C29.6771 10.9375 30.1979 10.0156 30.875 9.23438C31.5625 8.45312 32.3958 7.85417 33.375 7.4375C34.3542 7.01042 35.4583 6.79688 36.6875 6.79688C37.8854 6.79688 38.9479 6.99479 39.875 7.39062C40.8021 7.78646 41.5781 8.34896 42.2031 9.07812C42.8385 9.80729 43.3177 10.6823 43.6406 11.7031C43.9635 12.7135 44.125 13.8385 44.125 15.0781V16.9531H30.6875V13.9531H39.7031V13.6094C39.7031 12.9844 39.5885 12.4271 39.3594 11.9375C39.1406 11.4375 38.8073 11.0417 38.3594 10.75C37.9115 10.4583 37.3385 10.3125 36.6406 10.3125C36.0469 10.3125 35.5365 10.4427 35.1094 10.7031C34.6823 10.9635 34.3333 11.3281 34.0625 11.7969C33.8021 12.2656 33.6042 12.8177 33.4688 13.4531C33.3438 14.0781 33.2812 14.7656 33.2812 15.5156V16.1406C33.2812 16.8177 33.375 17.4427 33.5625 18.0156C33.7604 18.5885 34.0365 19.0833 34.3906 19.5C34.7552 19.9167 35.1927 20.2396 35.7031 20.4688C36.224 20.6979 36.8125 20.8125 37.4688 20.8125C38.2812 20.8125 39.0365 20.6562 39.7344 20.3438C40.4427 20.0208 41.0521 19.5365 41.5625 18.8906L43.75 21.2656C43.3958 21.776 42.9115 22.2656 42.2969 22.7344C41.6927 23.2031 40.9635 23.5885 40.1094 23.8906C39.2552 24.1823 38.2812 24.3281 37.1875 24.3281ZM55.8125 20.2031V12.6719C55.8125 12.1302 55.724 11.6667 55.5469 11.2812C55.3698 10.8854 55.0938 10.5781 54.7188 10.3594C54.3542 10.1406 53.8802 10.0312 53.2969 10.0312C52.7969 10.0312 52.3646 10.1198 52 10.2969C51.6354 10.4635 51.3542 10.7083 51.1562 11.0312C50.9583 11.3438 50.8594 11.7135 50.8594 12.1406H46.3594C46.3594 11.4219 46.526 10.7396 46.8594 10.0938C47.1927 9.44792 47.6771 8.88021 48.3125 8.39062C48.9479 7.89062 49.7031 7.5 50.5781 7.21875C51.4635 6.9375 52.4531 6.79688 53.5469 6.79688C54.8594 6.79688 56.026 7.01562 57.0469 7.45312C58.0677 7.89062 58.8698 8.54688 59.4531 9.42188C60.0469 10.2969 60.3438 11.3906 60.3438 12.7031V19.9375C60.3438 20.8646 60.401 21.625 60.5156 22.2188C60.6302 22.8021 60.7969 23.3125 61.0156 23.75V24.0156H56.4688C56.25 23.5573 56.0833 22.9844 55.9688 22.2969C55.8646 21.599 55.8125 20.901 55.8125 20.2031ZM56.4062 13.7188L56.4375 16.2656H53.9219C53.3281 16.2656 52.8125 16.3333 52.375 16.4688C51.9375 16.6042 51.5781 16.7969 51.2969 17.0469C51.0156 17.2865 50.8073 17.5677 50.6719 17.8906C50.5469 18.2135 50.4844 18.5677 50.4844 18.9531C50.4844 19.3385 50.5729 19.6875 50.75 20C50.9271 20.3021 51.1823 20.5417 51.5156 20.7188C51.849 20.8854 52.2396 20.9688 52.6875 20.9688C53.3646 20.9688 53.9531 20.8333 54.4531 20.5625C54.9531 20.2917 55.3385 19.9583 55.6094 19.5625C55.8906 19.1667 56.0365 18.7917 56.0469 18.4375L57.2344 20.3438C57.0677 20.7708 56.8385 21.2135 56.5469 21.6719C56.2656 22.1302 55.9062 22.5625 55.4688 22.9688C55.0312 23.3646 54.5052 23.6927 53.8906 23.9531C53.276 24.2031 52.5469 24.3281 51.7031 24.3281C50.6302 24.3281 49.6562 24.1146 48.7812 23.6875C47.9167 23.25 47.2292 22.651 46.7188 21.8906C46.2188 21.1198 45.9688 20.2448 45.9688 19.2656C45.9688 18.3802 46.1354 17.5938 46.4688 16.9062C46.8021 16.2188 47.2917 15.6406 47.9375 15.1719C48.5938 14.6927 49.4115 14.3333 50.3906 14.0938C51.3698 13.8438 52.5052 13.7188 53.7969 13.7188H56.4062ZM68.3125 0V24.0156H63.8125V0H68.3125ZM78.9688 7.10938L71.625 15.4844L67.6875 19.4688L66.0469 16.2188L69.1719 12.25L73.5625 7.10938H78.9688ZM74.2969 24.0156L69.2969 16.2031L72.4062 13.4844L79.4844 24.0156H74.2969Z" fill="#0F172A"/>
<path d="M85.6562 7.10938V24.0156H81.1406V7.10938H85.6562ZM80.8594 2.70312C80.8594 2.04688 81.0885 1.50521 81.5469 1.07812C82.0052 0.651042 82.6198 0.4375 83.3906 0.4375C84.151 0.4375 84.7604 0.651042 85.2188 1.07812C85.6875 1.50521 85.9219 2.04688 85.9219 2.70312C85.9219 3.35938 85.6875 3.90104 85.2188 4.32812C84.7604 4.75521 84.151 4.96875 83.3906 4.96875C82.6198 4.96875 82.0052 4.75521 81.5469 4.32812C81.0885 3.90104 80.8594 3.35938 80.8594 2.70312ZM88.6562 15.7344V15.4062C88.6562 14.1667 88.8333 13.026 89.1875 11.9844C89.5417 10.9323 90.0573 10.0208 90.7344 9.25C91.4115 8.47917 92.2448 7.88021 93.2344 7.45312C94.224 7.01562 95.3594 6.79688 96.6406 6.79688C97.9219 6.79688 99.0625 7.01562 100.062 7.45312C101.062 7.88021 101.901 8.47917 102.578 9.25C103.266 10.0208 103.786 10.9323 104.141 11.9844C104.495 13.026 104.672 14.1667 104.672 15.4062V15.7344C104.672 16.9635 104.495 18.1042 104.141 19.1562C103.786 20.1979 103.266 21.1094 102.578 21.8906C101.901 22.6615 101.068 23.2604 100.078 23.6875C99.0885 24.1146 97.9531 24.3281 96.6719 24.3281C95.3906 24.3281 94.25 24.1146 93.25 23.6875C92.2604 23.2604 91.4219 22.6615 90.7344 21.8906C90.0573 21.1094 89.5417 20.1979 89.1875 19.1562C88.8333 18.1042 88.6562 16.9635 88.6562 15.7344ZM93.1562 15.4062V15.7344C93.1562 16.4427 93.2188 17.1042 93.3438 17.7188C93.4688 18.3333 93.6667 18.875 93.9375 19.3438C94.2188 19.8021 94.5833 20.1615 95.0312 20.4219C95.4792 20.6823 96.026 20.8125 96.6719 20.8125C97.2969 20.8125 97.8333 20.6823 98.2812 20.4219C98.7292 20.1615 99.0885 19.8021 99.3594 19.3438C99.6302 18.875 99.8281 18.3333 99.9531 17.7188C100.089 17.1042 100.156 16.4427 100.156 15.7344V15.4062C100.156 14.7188 100.089 14.0729 99.9531 13.4688C99.8281 12.8542 99.625 12.3125 99.3438 11.8438C99.0729 11.3646 98.7135 10.9896 98.2656 10.7188C97.8177 10.4479 97.276 10.3125 96.6406 10.3125C96.0052 10.3125 95.4635 10.4479 95.0156 10.7188C94.5781 10.9896 94.2188 11.3646 93.9375 11.8438C93.6667 12.3125 93.4688 12.8542 93.3438 13.4688C93.2188 14.0729 93.1562 14.7188 93.1562 15.4062Z" fill="#86198F"/>
</svg>
