<svg width="64" height="64" viewBox="0 0 64 64" fill="none" xmlns="http://www.w3.org/2000/svg">
<g clip-path="url(#clip0_3112_5277)">
<path d="M13.3333 21.3334C16.2789 21.3334 18.6667 18.9456 18.6667 16.0001C18.6667 13.0546 16.2789 10.6667 13.3333 10.6667C10.3878 10.6667 8 13.0546 8 16.0001C8 18.9456 10.3878 21.3334 13.3333 21.3334Z" stroke="#A21CAF" stroke-width="4" stroke-linecap="round" stroke-linejoin="round"/>
<path d="M32 21.3334C34.9455 21.3334 37.3333 18.9456 37.3333 16.0001C37.3333 13.0546 34.9455 10.6667 32 10.6667C29.0545 10.6667 26.6667 13.0546 26.6667 16.0001C26.6667 18.9456 29.0545 21.3334 32 21.3334Z" stroke="#A21CAF" stroke-width="4" stroke-linecap="round" stroke-linejoin="round"/>
<path d="M50.6667 21.3334C53.6122 21.3334 56 18.9456 56 16.0001C56 13.0546 53.6122 10.6667 50.6667 10.6667C47.7212 10.6667 45.3333 13.0546 45.3333 16.0001C45.3333 18.9456 47.7212 21.3334 50.6667 21.3334Z" stroke="#A21CAF" stroke-width="4" stroke-linecap="round" stroke-linejoin="round"/>
<path d="M13.3333 53.3334C16.2789 53.3334 18.6667 50.9456 18.6667 48.0001C18.6667 45.0546 16.2789 42.6667 13.3333 42.6667C10.3878 42.6667 8 45.0546 8 48.0001C8 50.9456 10.3878 53.3334 13.3333 53.3334Z" stroke="#A21CAF" stroke-width="4" stroke-linecap="round" stroke-linejoin="round"/>
<path d="M32 53.3334C34.9455 53.3334 37.3333 50.9456 37.3333 48.0001C37.3333 45.0546 34.9455 42.6667 32 42.6667C29.0545 42.6667 26.6667 45.0546 26.6667 48.0001C26.6667 50.9456 29.0545 53.3334 32 53.3334Z" stroke="#A21CAF" stroke-width="4" stroke-linecap="round" stroke-linejoin="round"/>
<path d="M13.3333 21.3333V42.6666" stroke="#A21CAF" stroke-width="4" stroke-linecap="round" stroke-linejoin="round"/>
<path d="M32 21.3333V42.6666" stroke="#A21CAF" stroke-width="4" stroke-linecap="round" stroke-linejoin="round"/>
<path d="M50.6667 21.3333V26.6666C50.6667 28.0811 50.1048 29.4376 49.1046 30.4378C48.1044 31.438 46.7478 31.9999 45.3333 31.9999H13.3333" stroke="#A21CAF" stroke-width="4" stroke-linecap="round" stroke-linejoin="round"/>
</g>
<defs>
<clipPath id="clip0_3112_5277">
<rect width="64" height="64" fill="white"/>
</clipPath>
</defs>
</svg>
