<svg width="8" height="14" viewBox="0 0 8 14" fill="none" xmlns="http://www.w3.org/2000/svg">
<path d="M5.23071 6.64471L0.280712 1.69471C0.0985538 1.50611 -0.00224062 1.25351 3.78026e-05 0.991311C0.00231622 0.729114 0.107485 0.478301 0.292893 0.292893C0.478301 0.107485 0.729114 0.00231622 0.991311 3.78026e-05C1.25351 -0.00224062 1.50611 0.0985538 1.69471 0.280712L7.35171 5.93771C7.53918 6.12524 7.6445 6.37955 7.6445 6.64471C7.6445 6.90988 7.53918 7.16418 7.35171 7.35171L1.69471 13.0087C1.50611 13.1909 1.25351 13.2917 0.991311 13.2894C0.729114 13.2871 0.478301 13.1819 0.292893 12.9965C0.107485 12.8111 0.00231622 12.5603 3.78026e-05 12.2981C-0.00224062 12.0359 0.0985538 11.7833 0.280712 11.5947L5.23071 6.64471Z" fill="#475569"/>
</svg>
